<svg height="48" width="48" xmlns="http://www.w3.org/2000/svg" xmlns:xlink="http://www.w3.org/1999/xlink"><linearGradient id="a" gradientTransform="matrix(0 -1.1363095 1.2208188 0 .184812 53.703806)" gradientUnits="userSpaceOnUse" x1="38.940514" x2="20.576487" y1="15.991243" y2="15.991243"><stop offset="0" stop-color="#fff"/><stop offset=".51153916" stop-color="#fff" stop-opacity=".235294"/><stop offset=".58522105" stop-color="#fff" stop-opacity=".156863"/><stop offset="1" stop-color="#fff" stop-opacity=".392157"/></linearGradient><linearGradient id="b" gradientTransform="matrix(1.0417199 0 0 .96960863 -1.672366 1.24692)" gradientUnits="userSpaceOnUse" x1="23.731871" x2="23.731871" y1="4.417527" y2="38.066303"><stop offset="0" stop-color="#fff3cb"/><stop offset=".26238" stop-color="#fdde76"/><stop offset=".66093999" stop-color="#f9c440"/><stop offset="1" stop-color="#e48b20"/></linearGradient><radialGradient id="c" cx="24.837126" cy="36.421127" gradientTransform="matrix(1 0 0 .536723 0 16.87306)" gradientUnits="userSpaceOnUse" r="15.644737"><stop offset="0"/><stop offset="1" stop-opacity="0"/></radialGradient><path d="m40.481863 36.421127a15.644737 8.3968961 0 1 1 -31.2894745 0 15.644737 8.3968961 0 1 1 31.2894745 0z" fill="url(#c)" fill-rule="evenodd" opacity=".141176" transform="matrix(-1.05990908 0 0 -1.3156781 46.025246 81.87087)"/><path d="m14.274995 38.761094c-13.227139-8.929172-5.518381-25.327861 9.225022-25.19326v-8.361148l17.999983 13.686673-17.999983 13.686654v-8.343101c-9.5089-.368785-14.694959 8.29364-7.897056 14.524182z" display="block" fill="url(#b)"/><g fill="none"><path d="m12.753723 36.573401c-9.685448-8.518668-2.007224-22.93147 11.664492-22.000966l.0818-7.3958146 15.448866 11.6937076-15.448866 11.734276v-7.266198c-14.184342-.323949-14.0029 10.792446-11.746294 13.234995z" display="block" opacity=".8" stroke="url(#a)" stroke-miterlimit="7" stroke-width=".963925"/><path d="m14.274995 38.761094c-13.227139-8.929172-5.518381-25.327861 9.225022-25.19326v-8.3611478l17.999983 13.6866728-17.999983 13.686654v-8.343101c-9.5089-.368785-14.694959 8.29364-7.897056 14.524182z" opacity=".5" stroke="#956500" stroke-linejoin="round"/></g></svg>